<?xml version="1.0" encoding="UTF-8" standalone="no"?>
<svg
   xmlns:dc="http://purl.org/dc/elements/1.1/"
   xmlns:cc="http://creativecommons.org/ns#"
   xmlns:rdf="http://www.w3.org/1999/02/22-rdf-syntax-ns#"
   xmlns:svg="http://www.w3.org/2000/svg"
   xmlns="http://www.w3.org/2000/svg"
   xmlns:sodipodi="http://sodipodi.sourceforge.net/DTD/sodipodi-0.dtd"
   xmlns:inkscape="http://www.inkscape.org/namespaces/inkscape"
   height="34.870644"
   width="207.27003"
   id="svg4596"
   version="1.1"
   inkscape:version="0.91 r13725"
   sodipodi:docname="header_logo.svg"
   inkscape:export-filename="/home/drazard/GitHub/StoryHub/img/header_logo.png"
   inkscape:export-xdpi="56.318901"
   inkscape:export-ydpi="56.318901">
  <metadata
     id="metadata4604">
    <rdf:RDF>
      <cc:Work
         rdf:about="">
        <dc:format>image/svg+xml</dc:format>
        <dc:type
           rdf:resource="http://purl.org/dc/dcmitype/StillImage" />
        <dc:title></dc:title>
      </cc:Work>
    </rdf:RDF>
  </metadata>
  <defs
     id="defs4602" />
  <sodipodi:namedview
     pagecolor="#ffffff"
     bordercolor="#666666"
     borderopacity="1"
     objecttolerance="10"
     gridtolerance="10"
     guidetolerance="10"
     inkscape:pageopacity="0"
     inkscape:pageshadow="2"
     inkscape:window-width="1301"
     inkscape:window-height="744"
     id="namedview4600"
     showgrid="false"
     fit-margin-top="0"
     fit-margin-left="0"
     fit-margin-right="0"
     fit-margin-bottom="0"
     inkscape:zoom="1.6766165"
     inkscape:cx="102.55822"
     inkscape:cy="-66.558123"
     inkscape:window-x="65"
     inkscape:window-y="24"
     inkscape:window-maximized="1"
     inkscape:current-layer="svg4596" />
  <path
     d="m 17.706569,6.8532847 -5.482625,0 c -2.741314,0 -2.741314,2.7413183 -2.741314,2.7413183 l 10.965258,0 c 0,0 0,-2.7413183 -2.741319,-2.7413183 z m 0,5.4826313 -5.482625,0 c -2.741314,0 -2.741314,2.741313 -2.741314,2.741313 l 10.965258,0 c 0,0 0,-2.741313 -2.741319,-2.741313 z m 0,5.482631 -5.482625,0 c -2.741314,0 -2.741314,2.741313 -2.741314,2.741313 l 10.965258,0 c 0,0 0,-2.741313 -2.741319,-2.741313 z m 19.189208,-10.9652623 -5.482632,0 c -2.741313,0 -2.741313,2.7413183 -2.741313,2.7413183 l 10.965257,0 c 0,0 0,-2.7413183 -2.741312,-2.7413183 z m 0,5.4826313 -5.482632,0 c -2.741313,0 -2.741313,2.741313 -2.741313,2.741313 l 10.965257,0 c 0,0 0,-2.741313 -2.741312,-2.741313 z m 0,5.482631 -5.482632,0 c -2.741313,0 -2.741313,2.741313 -2.741313,2.741313 l 10.965257,0 c 0,0 0,-2.741313 -2.741312,-2.741313 z M 30.042486,0 C 27.301173,0 24.55986,2.7413127 24.55986,2.7413127 24.55986,2.7413127 21.818541,0 19.077229,0 12.223944,0 4,2.7413127 4,2.7413127 L 4,28.783804 23.189201,27.413145 c 0,0 -0.05485,1.370659 1.343886,1.370659 1.397427,0 1.397427,-1.370659 1.397427,-1.370659 l 19.189207,1.370659 0,-26.0424913 C 45.119721,2.7413127 36.895777,0 30.042486,0 Z m -6.853285,26.042492 c 0,0 0.04415,-2.741319 -2.741313,-2.741319 -8.268106,0 -13.706576,2.741319 -13.706576,2.741319 l 0,-21.9305203 c 0,0 5.482632,-1.370659 10.965257,-1.370659 2.741319,0 5.482632,2.741318 5.482632,2.741318 l 0,20.5598613 z m 19.189202,-1.37066 c 0,0 -4.154804,-1.370659 -13.706571,-1.370659 -2.65565,0 -2.741318,2.741319 -2.741318,2.741319 l 0,-20.5598613 c 0,0 2.741318,-2.741318 5.482631,-2.741318 5.482632,0 10.965258,2.741318 10.965258,2.741318 l 0,19.1892013 z"
     id="path4598"
     inkscape:connector-curvature="0"
     inkscape:export-xdpi="56.318901"
     inkscape:export-ydpi="56.318901" />
  <flowRoot
     xml:space="preserve"
     id="flowRoot4606"
     style="font-style:normal;font-variant:normal;font-weight:normal;font-stretch:normal;font-size:30px;line-height:125%;font-family:'Abyssinica SIL';-inkscape-font-specification:'Abyssinica SIL';letter-spacing:0px;word-spacing:0px;fill:#000000;fill-opacity:1;stroke:none;stroke-width:1px;stroke-linecap:butt;stroke-linejoin:miter;stroke-opacity:1"
     transform="translate(-31.5494,-9.3323489)"
     inkscape:export-xdpi="56.318901"
     inkscape:export-ydpi="56.318901"><flowRegion
       id="flowRegion4608"><rect
         id="rect4610"
         width="217.10393"
         height="107.95552"
         x="79.326431"
         y="3.7333515"
         style="font-style:normal;font-variant:normal;font-weight:normal;font-stretch:normal;font-size:30px;font-family:'Abyssinica SIL';-inkscape-font-specification:'Abyssinica SIL'" /></flowRegion><flowPara
       id="flowPara4612"
       style="font-style:normal;font-variant:normal;font-weight:normal;font-stretch:normal;font-size:30px;font-family:Laksaman;-inkscape-font-specification:Laksaman" /></flowRoot>  <flowRoot
     xml:space="preserve"
     id="flowRoot4633"
     style="font-style:normal;font-weight:normal;font-size:40px;line-height:125%;font-family:Sans;letter-spacing:0px;word-spacing:0px;fill:#000000;fill-opacity:1;stroke:none;stroke-width:1px;stroke-linecap:butt;stroke-linejoin:miter;stroke-opacity:1"
     transform="translate(-36.356521,-1.789318)"
     inkscape:export-xdpi="56.318901"
     inkscape:export-ydpi="56.318901"><flowRegion
       id="flowRegion4635"><rect
         id="rect4637"
         width="190.26414"
         height="49.504463"
         x="88.869461"
         y="0.75115865" /></flowRegion><flowPara
       id="flowPara4639"
       style="font-style:normal;font-variant:normal;font-weight:bold;font-stretch:normal;font-size:35px;font-family:Laksaman;-inkscape-font-specification:Laksaman">StoryHub</flowPara></flowRoot></svg>
