<?xml version="1.0" encoding="UTF-8" standalone="no"?>
<svg
   xmlns:dc="http://purl.org/dc/elements/1.1/"
   xmlns:cc="http://creativecommons.org/ns#"
   xmlns:rdf="http://www.w3.org/1999/02/22-rdf-syntax-ns#"
   xmlns:svg="http://www.w3.org/2000/svg"
   xmlns="http://www.w3.org/2000/svg"
   xmlns:sodipodi="http://sodipodi.sourceforge.net/DTD/sodipodi-0.dtd"
   xmlns:inkscape="http://www.inkscape.org/namespaces/inkscape"
   height="735.79242"
   width="830.67529"
   id="svg4203"
   version="1.1"
   inkscape:version="0.91 r13725"
   sodipodi:docname="logo.svg">
  <metadata
     id="metadata4211">
    <rdf:RDF>
      <cc:Work
         rdf:about="">
        <dc:format>image/svg+xml</dc:format>
        <dc:type
           rdf:resource="http://purl.org/dc/dcmitype/StillImage" />
        <dc:title></dc:title>
      </cc:Work>
    </rdf:RDF>
  </metadata>
  <defs
     id="defs4209" />
  <sodipodi:namedview
     pagecolor="#ffffff"
     bordercolor="#666666"
     borderopacity="1"
     objecttolerance="10"
     gridtolerance="10"
     guidetolerance="10"
     inkscape:pageopacity="0"
     inkscape:pageshadow="2"
     inkscape:window-width="1301"
     inkscape:window-height="744"
     id="namedview4207"
     showgrid="false"
     inkscape:zoom="0.41915412"
     inkscape:cx="46.791674"
     inkscape:cy="527.01519"
     inkscape:window-x="65"
     inkscape:window-y="24"
     inkscape:window-maximized="1"
     inkscape:current-layer="svg4203"
     fit-margin-top="20"
     fit-margin-left="20"
     fit-margin-right="20"
     fit-margin-bottom="20" />
  <path
     d="m 297.83936,132.28485 -89.82789,0 c -44.91394,0 -44.91394,44.91394 -44.91394,44.91394 l 179.65577,0 c 0,0 0,-44.91394 -44.91394,-44.91394 z m 0,89.82788 -89.82789,0 c -44.91394,0 -44.91394,44.91394 -44.91394,44.91394 l 179.65577,0 c 0,0 0,-44.91394 -44.91394,-44.91394 z m 0,89.82785 -89.82789,0 c -44.91394,0 -44.91394,44.91395 -44.91394,44.91395 l 179.65577,0 c 0,0 0,-44.91395 -44.91394,-44.91395 z m 314.39761,-179.65573 -89.82791,0 c -44.91394,0 -44.91394,44.91394 -44.91394,44.91394 l 179.65579,0 c 0,0 0,-44.91394 -44.91394,-44.91394 z m 0,89.82788 -89.82791,0 c -44.91394,0 -44.91394,44.91394 -44.91394,44.91394 l 179.65579,0 c 0,0 0,-44.91394 -44.91394,-44.91394 z m 0,89.82785 -89.82791,0 c -44.91394,0 -44.91394,44.91395 -44.91394,44.91395 l 179.65579,0 c 0,0 0,-44.91395 -44.91394,-44.91395 z M 499.95209,20 C 455.03815,20 410.12421,64.91394 410.12421,64.91394 410.12421,64.91394 365.21027,20 320.29633,20 208.01147,20 73.269664,64.91394 73.269664,64.91394 l 0,426.68241 314.397576,-22.45697 c 0,0 -0.89898,22.45697 22.01835,22.45697 22.89559,0 22.89559,-22.45697 22.89559,-22.45697 l 314.39761,22.45697 0,-426.68241 C 746.97879,64.91394 612.23697,20 499.95209,20 Z M 387.66724,446.68241 c 0,0 0.72353,-44.91394 -44.91394,-44.91394 -135.46536,0 -224.5697,44.91394 -224.5697,44.91394 l 0,-359.3115 c 0,0 89.82787,-22.45697 179.65576,-22.45697 44.91394,0 89.82788,44.91394 89.82788,44.91394 l 0,336.85453 z m 314.39761,-22.45697 c 0,0 -68.07269,-22.45697 -224.56973,-22.45697 -43.51038,0 -44.91394,44.91394 -44.91394,44.91394 l 0,-336.85453 c 0,0 44.91394,-44.91394 89.82788,-44.91394 89.82791,0 179.65579,44.91394 179.65579,44.91394 l 0,314.39756 z"
     id="path4205"
     inkscape:connector-curvature="0" />
  <flowRoot
     xml:space="preserve"
     id="flowRoot4213"
     style="font-style:normal;font-variant:normal;font-weight:normal;font-stretch:normal;font-size:275px;line-height:125%;font-family:Aroania;-inkscape-font-specification:Aroania;letter-spacing:0px;word-spacing:0px;fill:#000000;fill-opacity:1;stroke:none;stroke-width:1px;stroke-linecap:butt;stroke-linejoin:miter;stroke-opacity:1"
     transform="translate(-393.44633,-449.365)"><flowRegion
       id="flowRegion4215"><rect
         id="rect4217"
         width="1417.1399"
         height="281.51935"
         x="76.344231"
         y="1022.6467"
         style="font-style:normal;font-variant:normal;font-weight:normal;font-stretch:normal;font-size:275px;font-family:Aroania;-inkscape-font-specification:Aroania" /></flowRegion><flowPara
       id="flowPara4219"
       style="font-style:normal;font-variant:normal;font-weight:normal;font-stretch:normal;font-size:275px;font-family:Aroania;-inkscape-font-specification:Aroania">StoryHubSoe</flowPara></flowRoot>  <flowRoot
     xml:space="preserve"
     id="flowRoot4221"
     style="font-style:normal;font-variant:normal;font-weight:normal;font-stretch:normal;font-size:250px;line-height:125%;font-family:Aroania;-inkscape-font-specification:Aroania;letter-spacing:0px;word-spacing:0px;fill:#000000;fill-opacity:1;stroke:none;stroke-width:1px;stroke-linecap:butt;stroke-linejoin:miter;stroke-opacity:1"
     transform="translate(-240.75786,-563.88137)"><flowRegion
       id="flowRegion4223"><rect
         id="rect4225"
         width="1297.8519"
         height="386.49268"
         x="119.28786"
         y="1022.6467"
         style="font-style:normal;font-variant:normal;font-weight:normal;font-stretch:normal;font-size:250px;font-family:Aroania;-inkscape-font-specification:Aroania" /></flowRegion><flowPara
       id="flowPara4227"
       style="font-style:normal;font-variant:normal;font-weight:bold;font-stretch:normal;font-size:250px;font-family:Sawasdee;-inkscape-font-specification:'Sawasdee Bold'" /></flowRoot>  <text
     xml:space="preserve"
     style="font-style:normal;font-variant:normal;font-weight:normal;font-stretch:normal;font-size:200px;line-height:125%;font-family:NanumBarunGothic;-inkscape-font-specification:NanumBarunGothic;letter-spacing:0px;word-spacing:0px;fill:#000000;fill-opacity:1;stroke:none;stroke-width:1px;stroke-linecap:butt;stroke-linejoin:miter;stroke-opacity:1"
     x="-90.650284"
     y="694.01855"
     id="text4141"
     sodipodi:linespacing="125%"><tspan
       sodipodi:role="line"
       id="tspan4143"
       x="-90.650284"
       y="694.01855"
       style="font-style:normal;font-variant:normal;font-weight:bold;font-stretch:normal;font-size:180px;font-family:Laksaman;-inkscape-font-specification:'Laksaman Bold'" /></text>
  <text
     xml:space="preserve"
     style="font-style:normal;font-weight:normal;font-size:40px;line-height:125%;font-family:Sans;letter-spacing:0px;word-spacing:0px;fill:#000000;fill-opacity:1;stroke:none;stroke-width:1px;stroke-linecap:butt;stroke-linejoin:miter;stroke-opacity:1"
     x="14.78"
     y="674.93243"
     id="text4145"
     sodipodi:linespacing="125%"><tspan
       sodipodi:role="line"
       id="tspan4147"
       x="14.78"
       y="674.93243"
       style="font-style:normal;font-variant:normal;font-weight:bold;font-stretch:normal;font-size:180px;font-family:Laksaman;-inkscape-font-specification:'Laksaman Bold'">StoryHub</tspan></text>
</svg>
